<?xml version="1.0" ?><svg height="32" id="svg8" version="1.1" viewBox="0 0 8.4666665 8.4666669" width="32" xmlns="http://www.w3.org/2000/svg" xmlns:cc="http://creativecommons.org/ns#" xmlns:dc="http://purl.org/dc/elements/1.1/" xmlns:inkscape="http://www.inkscape.org/namespaces/inkscape" xmlns:rdf="http://www.w3.org/1999/02/22-rdf-syntax-ns#" xmlns:sodipodi="http://sodipodi.sourceforge.net/DTD/sodipodi-0.dtd" xmlns:svg="http://www.w3.org/2000/svg"><defs id="defs2"/><g id="layer2"><path d="M 4.9648438 4 A 1.0001 1.0001 0 0 0 4.9609375 4.0019531 A 1.0001 1.0001 0 0 0 4.0019531 4.9980469 L 4.0019531 14.003906 C 4.0019531 19.83724 6.9975387 23.449937 9.9355469 25.453125 C 12.873555 27.456313 15.820313 27.984375 15.820312 27.984375 A 1.0001 1.0001 0 0 0 16.181641 27.984375 C 16.181641 27.984375 19.126445 27.456313 22.064453 25.453125 C 25.002462 23.449937 28 19.83724 28 14.003906 L 28 4.9980469 A 1.0001 1.0001 0 0 0 26.552734 4.1035156 C 22.791248 5.9842584 19.215287 5.9423525 16.556641 4.1699219 A 1.0001 1.0001 0 0 0 15.443359 4.1699219 C 12.784713 5.9423525 9.2087524 5.9842584 5.4472656 4.1035156 A 1.0001 1.0001 0 0 0 4.9648438 4 z M 16.003906 5.9941406 C 18.885011 7.6694684 22.432151 7.6335963 25.998047 6.2597656 L 25.998047 14.003906 C 25.998047 19.170573 23.497538 22.052016 20.935547 23.798828 C 18.466219 25.482461 16.178732 25.897818 16.003906 25.931641 C 15.834637 25.898947 13.538848 25.484584 11.066406 23.798828 C 8.5044146 22.052016 6.0019535 19.170573 6.0019531 14.003906 L 6.0019531 6.2597656 C 9.5704054 7.6345812 13.121757 7.672941 16.003906 5.9941406 z M 16.001953 8 A 0.99304883 1.0072012 0 0 0 15.902344 8.0019531 A 0.99304883 1.0072012 0 0 0 15.605469 8.0839844 C 13.52915 8.9817718 11.425866 9.2982295 9.1308594 8.9863281 A 0.99304883 1.0072012 0 0 0 8.0078125 9.984375 L 8.0078125 14.144531 C 8.0078125 18.618004 10.076912 20.911805 12.175781 22.363281 C 13.948099 23.588931 15.343418 23.867847 15.765625 23.970703 A 0.99304883 1.0072012 0 0 0 16.228516 23.970703 C 16.651791 23.867651 18.042968 23.588882 19.816406 22.363281 C 21.916628 20.911844 23.990235 18.618083 23.990234 14.144531 L 23.990234 9.984375 A 0.99304883 1.0072012 0 0 0 22.869141 8.9863281 C 20.572025 9.2985829 18.46431 8.9826778 16.386719 8.0839844 A 0.99304883 1.0072012 0 0 0 16.001953 8 z M 15.996094 9.984375 C 17.905045 10.751296 19.92968 10.940592 22.007812 10.828125 L 22.007812 14.144531 C 22.007812 18.047505 20.574727 19.411638 18.703125 20.705078 C 17.303279 21.672495 16.577481 21.781489 15.996094 21.916016 C 15.414548 21.781387 14.689097 21.671923 13.291016 20.705078 C 11.421726 19.412368 9.9921875 18.0493 9.9921875 14.144531 L 9.9921875 10.828125 C 12.068071 10.940042 14.089467 10.750156 15.996094 9.984375 z M 15.982422 11.988281 A 1.0001001 1.0001001 0 0 0 15 13 L 15 15 L 13 15 A 1.0001001 1.0001001 0 0 0 12.904297 15 A 1.0013963 1.0013963 0 0 0 13 17 L 15 17 L 15 19.001953 A 1.0002461 1.0002461 0 1 0 17 19.001953 L 17 17 L 19.001953 17 A 1.0002461 1.0002461 0 1 0 19.001953 15 L 17 15 L 17 13 A 1.0001001 1.0001001 0 0 0 15.982422 11.988281 z " id="rect896" style="color:#000000;font-style:normal;font-variant:normal;font-weight:normal;font-stretch:normal;font-size:medium;line-height:normal;font-family:sans-serif;font-variant-ligatures:normal;font-variant-position:normal;font-variant-caps:normal;font-variant-numeric:normal;font-variant-alternates:normal;font-feature-settings:normal;text-indent:0;text-align:start;text-decoration:none;text-decoration-line:none;text-decoration-style:solid;text-decoration-color:#000000;letter-spacing:normal;word-spacing:normal;text-transform:none;writing-mode:lr-tb;direction:ltr;text-orientation:mixed;dominant-baseline:auto;baseline-shift:baseline;text-anchor:start;white-space:normal;shape-padding:0;clip-rule:nonzero;display:inline;overflow:visible;visibility:visible;opacity:1;isolation:auto;mix-blend-mode:normal;color-interpolation:sRGB;color-interpolation-filters:linearRGB;solid-color:#000000;solid-opacity:1;vector-effect:none;fill:#000000;fill-opacity:1;fill-rule:nonzero;stroke:none;stroke-width:1.99999988;stroke-linecap:round;stroke-linejoin:round;stroke-miterlimit:4;stroke-dasharray:none;stroke-dashoffset:0;stroke-opacity:1;paint-order:normal;color-rendering:auto;image-rendering:auto;shape-rendering:auto;text-rendering:auto;enable-background:accumulate" transform="scale(0.26458333)"/></g></svg>