<?xml version="1.0" encoding="iso-8859-1"?>
<!-- Generator: Adobe Illustrator 16.0.0, SVG Export Plug-In . SVG Version: 6.00 Build 0)  -->
<!DOCTYPE svg PUBLIC "-//W3C//DTD SVG 1.1//EN" "http://www.w3.org/Graphics/SVG/1.1/DTD/svg11.dtd">
<svg version="1.1" id="Capa_1" xmlns="http://www.w3.org/2000/svg" xmlns:xlink="http://www.w3.org/1999/xlink" x="0px" y="0px"
	 width="30.519px" height="30.519px" viewBox="0 0 30.519 30.519" style="enable-background:new 0 0 30.519 30.519;"
	 xml:space="preserve">
<g>
	<path d="M30.395,12.949c-2.657-5.171-6.203-6.691-8.983-6.966c-0.337-1.487-1.666-2.535-3.189-2.515l-6.607,0.09
		c-1.072,0.015-2.079,0.519-2.734,1.368L0.67,15.579c-1.087,1.41-0.825,3.435,0.585,4.521l8.148,6.281
		c0.678,0.521,1.535,0.754,2.383,0.644c0.848-0.109,1.617-0.553,2.14-1.229l8.323-10.8c0.586-0.76,0.803-1.741,0.592-2.678
		L21.93,8.276c2.042,0.425,4.493,1.846,6.474,5.695c0.197,0.387,0.59,0.608,0.998,0.608c0.171,0,0.346-0.041,0.511-0.124
		C30.46,14.175,30.679,13.499,30.395,12.949z M13.539,19.041c-0.253,0.329-0.725,0.39-1.054,0.137l-1.265-0.975l-0.978,1.267
		c-0.254,0.329-0.726,0.391-1.055,0.138l-1.322-1.022c-0.329-0.253-0.39-0.725-0.137-1.054l0.977-1.267l-1.268-0.977
		c-0.158-0.121-0.262-0.301-0.287-0.499c-0.026-0.197,0.028-0.398,0.149-0.555l1.022-1.326c0.121-0.157,0.301-0.261,0.499-0.286
		c0.197-0.026,0.397,0.028,0.555,0.149l1.268,0.977l0.976-1.268c0.122-0.157,0.302-0.261,0.499-0.286
		c0.198-0.025,0.398,0.028,0.556,0.15l1.324,1.021c0.328,0.253,0.389,0.725,0.136,1.054l-0.975,1.267l1.266,0.978
		c0.328,0.254,0.389,0.726,0.136,1.055L13.539,19.041z M18.889,9.52c-0.796,1.036-2.28,1.228-3.316,0.429
		c-1.032-0.796-1.226-2.279-0.428-3.314c0.771-1.003,2.191-1.214,3.22-0.499c-0.856,0.168-1.385,0.385-1.402,0.393
		c-0.57,0.242-0.836,0.902-0.592,1.47c0.243,0.57,0.903,0.831,1.469,0.592c0.077-0.033,0.654-0.271,1.54-0.393
		C19.354,8.662,19.196,9.125,18.889,9.52z"/>
</g>
<g>
</g>
<g>
</g>
<g>
</g>
<g>
</g>
<g>
</g>
<g>
</g>
<g>
</g>
<g>
</g>
<g>
</g>
<g>
</g>
<g>
</g>
<g>
</g>
<g>
</g>
<g>
</g>
<g>
</g>
</svg>
